<svg version="1.0" xmlns="http://www.w3.org/2000/svg" width="933.333" height="933.333" viewBox="0 0 700 700"><path d="M331.3 123c-57.2 5.6-109.6 31-148.6 72-66.4 69.9-81.7 173.6-38 258.8 29.5 57.5 82.6 100.6 145.3 117.8 34.3 9.4 72.7 11 107.7 4.3 89-17 160.4-84.6 181.7-172 4.6-18.9 5.9-30.8 5.9-52.9 0-26.3-2.9-45.2-10.4-68.7-26.8-83.6-100.3-144.9-189.4-157.9-12.5-1.8-42-2.6-54.2-1.4zM361 229.1c5.8 35.8 10.8 65.5 11.1 66.1.4.6 21.4-13.8 50-34.4 63.8-45.7 60.6-43.5 59.3-41.8-21.6 29.1-77.4 108.4-76.6 108.8.6.4 29.9 5.4 65.1 11.2 35.3 5.8 64.1 10.7 64.1 11 0 .3-28.7 5.2-63.7 10.9-35.1 5.7-64.5 10.7-65.4 11-1.1.5 6.8 12.2 33.3 49.1 19.2 26.7 36.7 51.2 39 54.5l4.3 6-7.7-5.5c-4.3-3-28.9-20.7-54.7-39.2-35.8-25.6-47-33.2-47.3-32-.3.9-5.2 30.2-10.9 64.9-5.7 34.8-10.6 63.3-10.9 63.3-.3 0-5.2-28.5-10.9-63.3-5.7-34.7-10.6-63.9-10.9-64.8-.3-1.3-12.1 6.7-47.3 32-25.8 18.5-50.4 36.1-54.7 39.1l-7.7 5.5 3.9-5.5c2.2-3 19.8-27.6 39.2-54.7 26.7-37.2 34.8-49.2 33.6-49.5-1-.3-30.2-5.1-64.9-10.9-34.8-5.7-63.3-10.6-63.3-10.9 0-.3 28.6-5.3 63.6-11 34.9-5.8 64-10.8 64.6-11.1.8-.5-46-67-76.6-108.9-.9-1.2-.8-1.3.4-.4 81.1 58.3 108.3 77.5 108.9 76.6.3-.6 5.3-30.3 11.1-66.1s10.7-65.1 11-65.1c.3 0 5.2 29.3 11 65.1z"/></svg>